<svg id="Layer_1" data-name="Layer 1" xmlns="http://www.w3.org/2000/svg" viewBox="0 0 606.27 322.89"><defs><style>.cls-1{fill:#cc9157;}.cls-2{fill:#fff;}</style></defs><path class="cls-1" d="M193.9,205V0L356.46,20.5l38.84,79.77-38.76,84.17ZM206.42,14.2V190.75l141.66-17.86,33.36-72.47L348.17,32.07Z"/><path class="cls-1" d="M213.21,184.83v-5.74h3.46v1.81l2.08-.26.43,3.43ZM227,183.09l-.44-3.43,7.77-1,.43,3.43Zm15.52-2L242,177.7l7.77-1,.43,3.44Zm15.53-2-.43-3.43,7.76-1,.44,3.43Zm15.53-2-.43-3.43,7.76-1,.43,3.43Zm15.53-2-.43-3.43,7.76-1,.43,3.43Zm15.53-2-.44-3.43,7.77-1,.43,3.43Zm15.52-2-.43-3.44,7.77-1,.43,3.44Zm-103.44-.08h-3.46v-7.83h3.46Zm119-1.88-.43-3.43,7.76-1,.44,3.43Zm11.55-7.24L344,160.7l3.28-7.11,3.14,1.45Zm-130.52-6.53h-3.46v-7.83h3.46Zm137.06-7.69-3.14-1.44,3.27-7.11,3.14,1.45Zm-137.06-8h-3.46v-7.83h3.46Zm143.61-6.25-3.15-1.45,3.28-7.11,3.14,1.45Zm-143.61-9.41h-3.46v-7.82h3.46Zm150.15-4.81-3.14-1.45,3.27-7.11,3.14,1.45ZM216.67,108.66h-3.46v-7.82h3.46Zm156.7-3.38-3.15-1.44,1.45-3.14-1.19-2.46,3.11-1.51,1.91,3.92ZM216.67,93h-3.46V85.19h3.46Zm150.38-1.8-3.43-7,3.11-1.51,3.43,7ZM216.67,77.36h-3.46V69.54h3.46Zm143.53-.23-3.43-7,3.11-1.52,3.43,7Zm-6.85-14.07-3.43-7L353,54.51l3.43,7ZM216.67,61.71h-3.46V53.88h3.46ZM346.49,49l-3.42-7,3.11-1.52,3.42,7ZM216.67,46.06h-3.46V38.23h3.46ZM338.46,39.4l-7.77-1,.44-3.43,7.76,1Zm-15.53-2-7.77-1L315.6,33l7.76,1ZM307.4,35.49l-7.76-1,.43-3.44,7.76,1Zm-15.53-2-7.76-1,.43-3.43,7.77,1Zm-15.53-2-7.76-1,.43-3.43,7.77,1Zm-59.67-1.16h-3.46V22.58h3.46Zm44.15-.8-7.77-1,.43-3.43,7.77,1Zm-15.53-2-7.77-1,.44-3.44,7.76,1ZM229.76,25.7l-7.76-1,.43-3.44,7.76,1Z"/><path class="cls-2" d="M0,322.28v-72H29.32a42.79,42.79,0,0,1,20.21,4.58,33.7,33.7,0,0,1,13.53,12.7,38.69,38.69,0,0,1,0,37.44A33.66,33.66,0,0,1,49.53,317.7a42.79,42.79,0,0,1-20.21,4.58Zm7.61-6.59H28.9a34.9,34.9,0,0,0,16.62-3.75,27.42,27.42,0,0,0,10.95-10.39,31.89,31.89,0,0,0,0-30.6,27.5,27.5,0,0,0-10.95-10.34,34.91,34.91,0,0,0-16.62-3.76H7.61Z"/><path class="cls-2" d="M92.58,315.69h43.3v6.59H85v-72h49.38v6.58H92.58Zm-.83-33.22h38.06V289H91.75Z"/><path class="cls-2" d="M153.78,322.28v-72h6.27l49.69,62.54h-3.3V250.27H214v72h-6.27L158.1,259.73h3.29v62.55Z"/><path class="cls-2" d="M237.41,322.28v-72H245v72Z"/><path class="cls-2" d="M268.47,322.28v-72h6.27l32.92,56.16h-3.29L337,250.27h6.27v72H336V261.69h1.75l-30,51.43h-3.6l-30.24-51.43h1.95v60.59Z"/><path class="cls-2" d="M398.18,322.89a40.81,40.81,0,0,1-15.07-2.72,35.49,35.49,0,0,1-20-19.34,38.84,38.84,0,0,1,0-29.11,35.52,35.52,0,0,1,19.91-19.34,43,43,0,0,1,30.14,0,36.11,36.11,0,0,1,12,7.66,35.12,35.12,0,0,1,7.92,11.63,39.1,39.1,0,0,1,0,29.21,35.08,35.08,0,0,1-7.92,11.62,36,36,0,0,1-12,7.67A40.47,40.47,0,0,1,398.18,322.89Zm0-6.79a31.72,31.72,0,0,0,12-2.21,28.2,28.2,0,0,0,9.57-6.27,29.24,29.24,0,0,0,6.32-9.47,32.22,32.22,0,0,0,0-23.76,29.19,29.19,0,0,0-6.32-9.46,28.38,28.38,0,0,0-9.57-6.28,31.92,31.92,0,0,0-12-2.21,32.38,32.38,0,0,0-12,2.21,28.71,28.71,0,0,0-16,15.74,32.09,32.09,0,0,0,0,23.71,28.51,28.51,0,0,0,16,15.79A32.18,32.18,0,0,0,398.18,316.1Z"/><path class="cls-2" d="M453,322.28v-72H480a38.56,38.56,0,0,1,15.74,2.93,22.65,22.65,0,0,1,10.13,8.44A24,24,0,0,1,509.37,275a23.61,23.61,0,0,1-3.55,13.11,22.65,22.65,0,0,1-10.13,8.44A38.56,38.56,0,0,1,480,299.44H457.22l3.39-3.5v26.34Zm7.61-25.72-3.39-3.6h22.53q10.8,0,16.4-4.73T501.76,275q0-8.64-5.61-13.37t-16.4-4.74H457.22l3.39-3.6Zm41.56,25.72-18.51-26.13h8.22l18.62,26.13Z"/><path class="cls-2" d="M515.85,322.28l32.92-72h7.51l32.91,72h-8l-30.24-67.59H554l-30.24,67.59Zm13-19.24,2.27-6.17h41.86L575.2,303Z"/><path class="cls-2" d="M581.26,233.07V216.16h6.33a9,9,0,0,1,3.69.69,5.31,5.31,0,0,1,2.38,2,5.6,5.6,0,0,1,.84,3.13,5.49,5.49,0,0,1-.84,3.07,5.27,5.27,0,0,1-2.38,2,9,9,0,0,1-3.69.68h-5.34l.79-.81v6.18Zm1.78-6-.79-.85h5.29a5.83,5.83,0,0,0,3.85-1.11,3.85,3.85,0,0,0,1.32-3.11,3.9,3.9,0,0,0-1.32-3.15,5.89,5.89,0,0,0-3.85-1.11h-5.29l.79-.84Zm9.76,6-4.34-6.14h1.93l4.37,6.14Z"/><path class="cls-2" d="M588,208.89a15.73,15.73,0,1,1-15.72,15.72A15.74,15.74,0,0,1,588,208.89m0-2.54a18.26,18.26,0,1,0,18.26,18.26A18.26,18.26,0,0,0,588,206.35Z"/></svg>