<svg width="60" height="60" viewBox="0 0 60 60" fill="none" xmlns="http://www.w3.org/2000/svg">
<g clip-path="url(#clip0_524_122)">
<path d="M30 60C46.5685 60 60 46.5685 60 30C60 13.4315 46.5685 0 30 0C13.4315 0 0 13.4315 0 30C0 46.5685 13.4315 60 30 60Z" fill="#9747FF"/>
<path d="M43.5073 56.7928C51.5576 52.7263 57.5266 45.1401 59.3885 36.0554L48.3091 24.9761L33.0134 38.5015L30 43.2858L43.5073 56.7928Z" fill="#8344D2"/>
<path d="M30 43.2856L11.6909 24.9759L14.9763 21.6904L30 36.7143L45.0237 21.6904L48.3091 24.9761L30 43.2856Z" fill="white"/>
<path d="M30 36.7143L45.0237 21.6904L48.3091 24.9761L30 43.2856V36.7143Z" fill="white"/>
</g>
<defs>
<clipPath id="clip0_524_122">
<rect width="60" height="60" fill="white"/>
</clipPath>
</defs>
</svg>
