<svg id="Layer_1" data-name="Layer 1" xmlns="http://www.w3.org/2000/svg" viewBox="0 0 606.27 116.54"><defs><style>.cls-1{fill:#1b1b34;}</style></defs><path class="cls-1" d="M0,115.92v-72H29.32A42.79,42.79,0,0,1,49.53,48.5,33.63,33.63,0,0,1,63.06,61.2a36,36,0,0,1,4.83,18.72,35.9,35.9,0,0,1-4.83,18.72,33.66,33.66,0,0,1-13.53,12.71,42.78,42.78,0,0,1-20.21,4.57Zm7.61-6.58H28.9a34.9,34.9,0,0,0,16.62-3.75A27.49,27.49,0,0,0,56.47,95.2a29.52,29.52,0,0,0,3.91-15.28A29.36,29.36,0,0,0,56.47,64.6,27.5,27.5,0,0,0,45.52,54.26,34.91,34.91,0,0,0,28.9,50.5H7.61Z"/><path class="cls-1" d="M92.58,109.34h43.3v6.58H85v-72h49.38V50.5H92.58Zm-.83-33.22h38.06V82.6H91.75Z"/><path class="cls-1" d="M153.78,115.92v-72h6.27l49.69,62.54h-3.3V43.92H214v72h-6.27L158.1,53.38h3.29v62.54Z"/><path class="cls-1" d="M237.41,115.92v-72H245v72Z"/><path class="cls-1" d="M268.47,115.92v-72h6.27l32.92,56.16h-3.29L337,43.92h6.27v72H336V55.34h1.75l-30,51.43h-3.6L273.82,55.34h1.95v60.58Z"/><path class="cls-1" d="M398.18,116.54a41,41,0,0,1-15.07-2.72,35.49,35.49,0,0,1-20-19.34,38.84,38.84,0,0,1,0-29.11A35.52,35.52,0,0,1,383.06,46a43,43,0,0,1,30.14,0,36.11,36.11,0,0,1,12,7.66,35.12,35.12,0,0,1,7.92,11.63,39.1,39.1,0,0,1,0,29.21,35.08,35.08,0,0,1-7.92,11.62,36.13,36.13,0,0,1-12,7.67A40.68,40.68,0,0,1,398.18,116.54Zm0-6.79a31.72,31.72,0,0,0,12-2.21,28.2,28.2,0,0,0,9.57-6.27,29.24,29.24,0,0,0,6.32-9.47,32.22,32.22,0,0,0,0-23.76,29.19,29.19,0,0,0-6.32-9.46,28.38,28.38,0,0,0-9.57-6.28,31.92,31.92,0,0,0-12-2.21,32.38,32.38,0,0,0-12,2.21A28.71,28.71,0,0,0,370.1,68a32.09,32.09,0,0,0,0,23.71,28.51,28.51,0,0,0,16,15.79A32.18,32.18,0,0,0,398.18,109.75Z"/><path class="cls-1" d="M453,115.92v-72H480a38.56,38.56,0,0,1,15.74,2.93,22.65,22.65,0,0,1,10.13,8.44,24,24,0,0,1,3.55,13.32,23.63,23.63,0,0,1-3.55,13.11,22.65,22.65,0,0,1-10.13,8.44A38.56,38.56,0,0,1,480,93.09H457.22l3.39-3.5v26.33Zm7.61-25.71-3.39-3.6h22.53q10.8,0,16.4-4.73t5.61-13.27q0-8.64-5.61-13.38t-16.4-4.73H457.22l3.39-3.6Zm41.56,25.71L483.66,89.8h8.22l18.62,26.12Z"/><path class="cls-1" d="M515.85,115.92l32.92-72h7.51l32.91,72h-8L550.93,48.34H554l-30.24,67.58Zm13-19.23,2.27-6.17h41.86l2.26,6.17Z"/><path class="cls-1" d="M581.26,26.72V9.81h6.33a8.84,8.84,0,0,1,3.69.69,5.19,5.19,0,0,1,2.38,2,5.59,5.59,0,0,1,.84,3.12,5.5,5.5,0,0,1-.84,3.08,5.27,5.27,0,0,1-2.38,2,9.17,9.17,0,0,1-3.69.68h-5.34l.79-.82v6.19Zm1.78-6-.79-.85h5.29a5.83,5.83,0,0,0,3.85-1.11,3.85,3.85,0,0,0,1.32-3.12,3.88,3.88,0,0,0-1.32-3.14,5.83,5.83,0,0,0-3.85-1.11h-5.29l.79-.84Zm9.76,6-4.34-6.14h1.93l4.37,6.14Z"/><path class="cls-1" d="M588,2.54a15.72,15.72,0,1,1-15.72,15.72A15.74,15.74,0,0,1,588,2.54M588,0a18.26,18.26,0,1,0,18.26,18.26A18.26,18.26,0,0,0,588,0Z"/></svg>