<svg id="Layer_1" data-name="Layer 1" xmlns="http://www.w3.org/2000/svg" viewBox="0 0 963.36 185.18"><defs><style>.cls-1{fill:#fff;}</style></defs><path class="cls-1" d="M0,184.2V69.79H46.58q18.31,0,32.12,7.27a53.34,53.34,0,0,1,21.49,20.19q7.69,12.91,7.69,29.75t-7.69,29.74A53.34,53.34,0,0,1,78.7,176.93q-13.82,7.27-32.12,7.27Zm12.1-10.46H45.93q15.2,0,26.4-6a43.48,43.48,0,0,0,17.4-16.51A46.93,46.93,0,0,0,95.94,127q0-13.9-6.21-24.36a43.7,43.7,0,0,0-17.4-16.43q-11.2-6-26.4-6H12.1Z"/><path class="cls-1" d="M147.1,173.74h68.81V184.2H135V69.79h78.45V80.25H147.1ZM145.79,121h60.48v10.3H145.79Z"/><path class="cls-1" d="M244.35,184.2V69.79h10l78.95,99.38H328V69.79H340V184.2H330L251.22,84.83h5.23V184.2Z"/><path class="cls-1" d="M377.24,184.2V69.79h12.09V184.2Z"/><path class="cls-1" d="M426.6,184.2V69.79h10L488.87,159h-5.23l51.81-89.24h10V184.2h-11.6V87.93h2.78l-47.73,81.73h-5.72L435.09,87.93h3.11V184.2Z"/><path class="cls-1" d="M632.7,185.18a64.85,64.85,0,0,1-23.94-4.33,56.31,56.31,0,0,1-31.71-30.73,58.24,58.24,0,0,1-4.5-23.12,58.32,58.32,0,0,1,4.5-23.13,56.49,56.49,0,0,1,31.63-30.73,68.37,68.37,0,0,1,47.89,0,57.31,57.31,0,0,1,19,12.18,55.49,55.49,0,0,1,12.58,18.47,62.11,62.11,0,0,1,0,46.42,55.7,55.7,0,0,1-12.58,18.47,57.13,57.13,0,0,1-19,12.17A64.29,64.29,0,0,1,632.7,185.18Zm0-10.78a50.52,50.52,0,0,0,19-3.52,45,45,0,0,0,15.2-10,46.49,46.49,0,0,0,10-15,51.41,51.41,0,0,0,0-37.75,46.6,46.6,0,0,0-10-15,45.11,45.11,0,0,0-15.2-10,50.71,50.71,0,0,0-19-3.51,51.27,51.27,0,0,0-19.12,3.51,45.66,45.66,0,0,0-25.5,25,51.2,51.2,0,0,0,0,37.67,45.47,45.47,0,0,0,25.5,25.09A51.07,51.07,0,0,0,632.7,174.4Z"/><path class="cls-1" d="M719.82,184.2V69.79h42.82q14.55,0,25,4.66a36,36,0,0,1,16.1,13.4q5.64,8.75,5.64,21.17,0,12.09-5.64,20.84a36,36,0,0,1-16.1,13.4q-10.46,4.65-25,4.66H726.52l5.4-5.56V184.2Zm12.1-40.86-5.4-5.72h35.8q17.16,0,26.07-7.52t8.9-21.08q0-13.74-8.9-21.25t-26.07-7.52h-35.8l5.4-5.72Zm66,40.86-29.42-41.51H781.6l29.59,41.51Z"/><path class="cls-1" d="M819.69,184.2,872,69.79h11.93L936.23,184.2H923.48L875.42,76.82h4.91L832.27,184.2Zm20.59-30.56,3.6-9.81H910.4l3.6,9.81Z"/><path class="cls-1" d="M923.62,42.45V15.58h10a14.38,14.38,0,0,1,5.88,1.1,8.47,8.47,0,0,1,3.78,3.14,9,9,0,0,1,1.32,5,8.85,8.85,0,0,1-1.32,4.89,8.43,8.43,0,0,1-3.78,3.15,14.39,14.39,0,0,1-5.88,1.09h-8.48l1.27-1.3v9.82Zm2.84-9.6-1.27-1.34h8.41a9.31,9.31,0,0,0,6.12-1.76,6.11,6.11,0,0,0,2.09-4.95,6.16,6.16,0,0,0-2.09-5A9.31,9.31,0,0,0,933.6,18h-8.41l1.27-1.35Zm15.5,9.6-6.9-9.75h3.07l6.94,9.75Z"/><path class="cls-1" d="M934.34,4a25,25,0,1,1-25,25,25,25,0,0,1,25-25m0-4a29,29,0,1,0,29,29,29,29,0,0,0-29-29Z"/></svg>