<svg id="Layer_1" data-name="Layer 1" xmlns="http://www.w3.org/2000/svg" viewBox="0 0 320.02 325.66"><defs><style>.cls-1{fill:#b59f73;}</style></defs><path class="cls-1" d="M0,325.66V0L258.31,32.57,320,159.32,258.45,293.07ZM19.9,22.56V303.1L245,274.72l53-115.16L245.13,51Z"/><path class="cls-1" d="M30.69,293.69v-9.11h5.5v2.87l3.3-.41.69,5.45Zm21.83-2.75-.69-5.46,12.34-1.55.68,5.45Zm24.67-3.12-.69-5.45,12.34-1.56.69,5.46Zm24.67-3.11-.68-5.45,12.33-1.56.69,5.46Zm24.68-3.11-.69-5.45,12.34-1.56.69,5.46Zm24.67-3.11-.69-5.45,12.34-1.56.69,5.45Zm24.68-3.11-.69-5.45,12.34-1.56.68,5.45Zm24.67-3.11-.69-5.46,12.34-1.55.69,5.45Zm-164.37-.13h-5.5V259.71h5.5Zm189-3-.68-5.46,12.33-1.55.69,5.45Zm18.35-11.5-5-2.3,5.2-11.3,5,2.3ZM36.19,247.27h-5.5V234.84h5.5ZM254,235.07l-5-2.3,5.2-11.3,5,2.3ZM36.19,222.41h-5.5V210h5.5Zm228.19-9.93-5-2.3,5.2-11.3,5,2.3ZM36.19,197.54h-5.5V185.1h5.5Zm238.59-7.65-5-2.3,5.21-11.3,5,2.3ZM36.19,172.67h-5.5V160.23h5.5Zm249-5.38-5-2.29,2.29-5-1.9-3.9,4.95-2.41,3,6.24Zm-249-19.49h-5.5V135.36h5.5Zm239-2.87-5.44-11.18,4.94-2.41,5.44,11.18Zm-238.95-22h-5.5V110.49h5.5Zm228.06-.36-5.44-11.18,4.94-2.41,5.44,11.18Zm-10.89-22.36L247.92,89l4.94-2.41,5.45,11.18ZM36.19,98.06h-5.5V85.62h5.5ZM242.48,77.85,237,66.67,242,64.26l5.44,11.18ZM36.19,73.19h-5.5V60.75h5.5ZM229.71,62.61l-12.34-1.56.69-5.45,12.33,1.56ZM205,59.5,192.7,57.94l.68-5.45L205.72,54Zm-24.67-3.11L168,54.83l.69-5.45,12.34,1.55Zm-24.68-3.11-12.33-1.56.68-5.45,12.34,1.55ZM131,50.17l-12.34-1.56.69-5.46,12.34,1.56ZM36.19,48.32h-5.5V35.88h5.5Zm70.15-1.27L94,45.5,94.69,40,107,41.6ZM81.66,43.94,69.32,42.39,70,36.93l12.34,1.56ZM57,40.83,44.65,39.28l.69-5.46,12.33,1.56Z"/></svg>